<svg xmlns="http://www.w3.org/2000/svg" width="1094" height="384" style="background-color:#fefefe"><defs><filter id="highlight" width="1" height="1" x="0" y="0"><feFlood flood-color="#ff0"/><feComposite in="SourceGraphic" operator="xor"/></filter><style>@import url(https://fonts.googleapis.com/css2?family=Sintony&amp;display=swap);</style></defs><defs><filter id="shadow" height="120%"><feGaussianBlur in="SourceAlpha" stdDeviation="2"/><feOffset dx="3" dy="3" result="offsetblur"/><feComponentTransfer><feFuncA slope=".3" type="linear"/></feComponentTransfer><feMerge><feMergeNode/><feMergeNode in="SourceGraphic"/></feMerge></filter></defs><rect width="54" height="54" fill="#FEFEFE" stroke="rgba(0,0,0,0.6)" rx="2"/><rect width="42" height="42" x="4" y="3" fill="#FEFEFE" stroke="rgba(0,0,0,0.1)" rx="4"/><text x="6" y="16" fill="#111" font-size="12">Esc</text><rect width="54" height="54" x="54" fill="#FEFEFE" stroke="rgba(0,0,0,0.6)" rx="2"/><rect width="42" height="42" x="58" y="3" fill="#FEFEFE" stroke="rgba(0,0,0,0.1)" rx="4"/><text x="60" y="16" fill="#111" font-size="12">1u</text><rect width="54" height="54" x="108" fill="#FEFEFE" stroke="rgba(0,0,0,0.6)" rx="2"/><rect width="42" height="42" x="112" y="3" fill="#FEFEFE" stroke="rgba(0,0,0,0.1)" rx="4"/><text x="114" y="16" fill="#111" font-size="12">F1</text><rect width="54" height="54" x="162" fill="#FEFEFE" stroke="rgba(0,0,0,0.6)" rx="2"/><rect width="42" height="42" x="166" y="3" fill="#FEFEFE" stroke="rgba(0,0,0,0.1)" rx="4"/><text x="168" y="16" fill="#111" font-size="12">F2</text><rect width="54" height="54" x="216" fill="#FEFEFE" stroke="rgba(0,0,0,0.6)" rx="2"/><rect width="42" height="42" x="220" y="3" fill="#FEFEFE" stroke="rgba(0,0,0,0.1)" rx="4"/><text x="222" y="16" fill="#111" font-size="12">F3</text><rect width="54" height="54" x="270" fill="#FEFEFE" stroke="rgba(0,0,0,0.6)" rx="2"/><rect width="42" height="42" x="274" y="3" fill="#FEFEFE" stroke="rgba(0,0,0,0.1)" rx="4"/><text x="276" y="16" fill="#111" font-size="12">F4</text><rect width="54" height="54" x="351" fill="#FEFEFE" stroke="rgba(0,0,0,0.6)" rx="2"/><rect width="42" height="42" x="355" y="3" fill="#FEFEFE" stroke="rgba(0,0,0,0.1)" rx="4"/><text x="357" y="16" fill="#111" font-size="12">F5</text><rect width="54" height="54" x="405" fill="#FEFEFE" stroke="rgba(0,0,0,0.6)" rx="2"/><rect width="42" height="42" x="409" y="3" fill="#FEFEFE" stroke="rgba(0,0,0,0.1)" rx="4"/><text x="411" y="16" fill="#111" font-size="12">F6</text><rect width="54" height="54" x="459" fill="#FEFEFE" stroke="rgba(0,0,0,0.6)" rx="2"/><rect width="42" height="42" x="463" y="3" fill="#FEFEFE" stroke="rgba(0,0,0,0.1)" rx="4"/><text x="465" y="16" fill="#111" font-size="12">F7</text><rect width="54" height="54" x="513" fill="#FEFEFE" stroke="rgba(0,0,0,0.6)" rx="2"/><rect width="42" height="42" x="517" y="3" fill="#FEFEFE" stroke="rgba(0,0,0,0.1)" rx="4"/><text x="519" y="16" fill="#111" font-size="12">F8</text><rect width="54" height="54" x="594" fill="#FEFEFE" stroke="rgba(0,0,0,0.6)" rx="2"/><rect width="42" height="42" x="598" y="3" fill="#FEFEFE" stroke="rgba(0,0,0,0.1)" rx="4"/><text x="600" y="16" fill="#111" font-size="12">F9</text><rect width="54" height="54" x="648" fill="#FEFEFE" stroke="rgba(0,0,0,0.6)" rx="2"/><rect width="42" height="42" x="652" y="3" fill="#FEFEFE" stroke="rgba(0,0,0,0.1)" rx="4"/><text x="654" y="16" fill="#111" font-size="12">F10</text><rect width="54" height="54" x="702" fill="#FEFEFE" stroke="rgba(0,0,0,0.6)" rx="2"/><rect width="42" height="42" x="706" y="3" fill="#FEFEFE" stroke="rgba(0,0,0,0.1)" rx="4"/><text x="708" y="16" fill="#111" font-size="12">F11</text><rect width="54" height="54" x="756" fill="#FEFEFE" stroke="rgba(0,0,0,0.6)" rx="2"/><rect width="42" height="42" x="760" y="3" fill="#FEFEFE" stroke="rgba(0,0,0,0.1)" rx="4"/><text x="762" y="16" fill="#111" font-size="12">F12</text><rect width="54" height="54" x="837" fill="#FEFEFE" stroke="rgba(0,0,0,0.6)" rx="2"/><rect width="42" height="42" x="841" y="3" fill="#FEFEFE" stroke="rgba(0,0,0,0.1)" rx="4"/><text x="843" y="16" fill="#111" font-size="12">Home</text><rect width="54" height="54" x="891" fill="#FEFEFE" stroke="rgba(0,0,0,0.6)" rx="2"/><rect width="42" height="42" x="895" y="3" fill="#FEFEFE" stroke="rgba(0,0,0,0.1)" rx="4"/><text x="897" y="16" fill="#111" font-size="12">End</text><rect width="54" height="54" x="945" fill="#FEFEFE" stroke="rgba(0,0,0,0.6)" rx="2"/><rect width="42" height="42" x="949" y="3" fill="#FEFEFE" stroke="rgba(0,0,0,0.1)" rx="4"/><text x="951" y="16" fill="#111" font-size="12">PgUp</text><rect width="54" height="54" x="999" fill="#FEFEFE" stroke="rgba(0,0,0,0.6)" rx="2"/><rect width="42" height="42" x="1003" y="3" fill="#FEFEFE" stroke="rgba(0,0,0,0.1)" rx="4"/><text x="1005" y="16" fill="#111" font-size="12">PgDn</text><rect width="54" height="54" y="67.5" fill="#FEFEFE" stroke="rgba(0,0,0,0.6)" rx="2"/><rect width="42" height="42" x="4" y="70.5" fill="#FEFEFE" stroke="rgba(0,0,0,0.1)" rx="4"/><text x="6" y="83.5" fill="#111" font-size="12">~</text><text x="6" y="105.5" fill="#111" font-size="12">`</text><rect width="54" height="54" x="54" y="67.5" fill="#FEFEFE" stroke="rgba(0,0,0,0.6)" rx="2"/><rect width="42" height="42" x="58" y="70.5" fill="#FEFEFE" stroke="rgba(0,0,0,0.1)" rx="4"/><text x="60" y="83.5" fill="#111" font-size="12">!</text><text x="60" y="105.5" fill="#111" font-size="12">1</text><rect width="54" height="54" x="108" y="67.5" fill="#FEFEFE" stroke="rgba(0,0,0,0.6)" rx="2"/><rect width="42" height="42" x="112" y="70.5" fill="#FEFEFE" stroke="rgba(0,0,0,0.1)" rx="4"/><text x="114" y="83.5" fill="#111" font-size="12">@</text><text x="114" y="105.5" fill="#111" font-size="12">2</text><rect width="54" height="54" x="162" y="67.5" fill="#FEFEFE" stroke="rgba(0,0,0,0.6)" rx="2"/><rect width="42" height="42" x="166" y="70.5" fill="#FEFEFE" stroke="rgba(0,0,0,0.1)" rx="4"/><text x="168" y="83.5" fill="#111" font-size="12">#</text><text x="168" y="105.5" fill="#111" font-size="12">3</text><rect width="54" height="54" x="216" y="67.5" fill="#FEFEFE" stroke="rgba(0,0,0,0.6)" rx="2"/><rect width="42" height="42" x="220" y="70.5" fill="#FEFEFE" stroke="rgba(0,0,0,0.1)" rx="4"/><text x="222" y="83.5" fill="#111" font-size="12">$</text><text x="222" y="105.5" fill="#111" font-size="12">4</text><rect width="54" height="54" x="270" y="67.5" fill="#FEFEFE" stroke="rgba(0,0,0,0.6)" rx="2"/><rect width="42" height="42" x="274" y="70.5" fill="#FEFEFE" stroke="rgba(0,0,0,0.1)" rx="4"/><text x="276" y="83.5" fill="#111" font-size="12">%</text><text x="276" y="105.5" fill="#111" font-size="12">5</text><rect width="54" height="54" x="324" y="67.5" fill="#FEFEFE" stroke="rgba(0,0,0,0.6)" rx="2"/><rect width="42" height="42" x="328" y="70.5" fill="#FEFEFE" stroke="rgba(0,0,0,0.1)" rx="4"/><text x="330" y="83.5" fill="#111" font-size="12">^</text><text x="330" y="105.5" fill="#111" font-size="12">6</text><rect width="54" height="54" x="378" y="67.5" fill="#FEFEFE" stroke="rgba(0,0,0,0.6)" rx="2"/><rect width="42" height="42" x="382" y="70.5" fill="#FEFEFE" stroke="rgba(0,0,0,0.1)" rx="4"/><text x="384" y="83.5" fill="#111" font-size="12">&amp;</text><text x="384" y="105.5" fill="#111" font-size="12">7</text><rect width="54" height="54" x="432" y="67.5" fill="#FEFEFE" stroke="rgba(0,0,0,0.6)" rx="2"/><rect width="42" height="42" x="436" y="70.5" fill="#FEFEFE" stroke="rgba(0,0,0,0.1)" rx="4"/><text x="438" y="83.5" fill="#111" font-size="12">*</text><text x="438" y="105.5" fill="#111" font-size="12">8</text><rect width="54" height="54" x="486" y="67.5" fill="#FEFEFE" stroke="rgba(0,0,0,0.6)" rx="2"/><rect width="42" height="42" x="490" y="70.5" fill="#FEFEFE" stroke="rgba(0,0,0,0.1)" rx="4"/><text x="492" y="83.5" fill="#111" font-size="12">(</text><text x="492" y="105.5" fill="#111" font-size="12">9</text><rect width="54" height="54" x="540" y="67.5" fill="#FEFEFE" stroke="rgba(0,0,0,0.6)" rx="2"/><rect width="42" height="42" x="544" y="70.5" fill="#FEFEFE" stroke="rgba(0,0,0,0.1)" rx="4"/><text x="546" y="83.5" fill="#111" font-size="12">)</text><text x="546" y="105.5" fill="#111" font-size="12">0</text><rect width="54" height="54" x="594" y="67.5" fill="#FEFEFE" stroke="rgba(0,0,0,0.6)" rx="2"/><rect width="42" height="42" x="598" y="70.5" fill="#FEFEFE" stroke="rgba(0,0,0,0.1)" rx="4"/><text x="600" y="83.5" fill="#111" font-size="12">_</text><text x="600" y="105.5" fill="#111" font-size="12">-</text><rect width="54" height="54" x="648" y="67.5" fill="#FEFEFE" stroke="rgba(0,0,0,0.6)" rx="2"/><rect width="42" height="42" x="652" y="70.5" fill="#FEFEFE" stroke="rgba(0,0,0,0.1)" rx="4"/><text x="654" y="83.5" fill="#111" font-size="12">=</text><text x="654" y="105.5" fill="#111" font-size="12">+</text><rect width="108" height="54" x="702" y="67.5" fill="#FEFEFE" stroke="rgba(0,0,0,0.6)" rx="2"/><rect width="95.8" height="42" x="706" y="70.5" fill="#FEFEFE" stroke="rgba(0,0,0,0.1)" rx="4"/><text x="708" y="83.5" fill="#111" font-size="12">Backspace</text><rect width="54" height="54" x="837" y="67.5" fill="#FEFEFE" stroke="rgba(0,0,0,0.6)" rx="2"/><rect width="42" height="42" x="841" y="70.5" fill="#FEFEFE" stroke="rgba(0,0,0,0.1)" rx="4"/><text x="843" y="83.5" fill="#111" font-size="12">Num</text><text x="843" y="105.5" fill="#111" font-size="12">Lock</text><rect width="54" height="54" x="891" y="67.5" fill="#FEFEFE" stroke="rgba(0,0,0,0.6)" rx="2"/><rect width="42" height="42" x="895" y="70.5" fill="#FEFEFE" stroke="rgba(0,0,0,0.1)" rx="4"/><text x="897" y="83.5" fill="#111" font-size="12">/</text><rect width="54" height="54" x="945" y="67.5" fill="#FEFEFE" stroke="rgba(0,0,0,0.6)" rx="2"/><rect width="42" height="42" x="949" y="70.5" fill="#FEFEFE" stroke="rgba(0,0,0,0.1)" rx="4"/><text x="951" y="83.5" fill="#111" font-size="12">*</text><rect width="54" height="54" x="999" y="67.5" fill="#FEFEFE" stroke="rgba(0,0,0,0.6)" rx="2"/><rect width="42" height="42" x="1003" y="70.5" fill="#FEFEFE" stroke="rgba(0,0,0,0.1)" rx="4"/><text x="1005" y="83.5" fill="#111" font-size="12">-</text><rect width="81" height="54" y="121.5" fill="#FEFEFE" stroke="rgba(0,0,0,0.6)" rx="2"/><rect width="71.85" height="42" x="4" y="124.5" fill="#FEFEFE" stroke="rgba(0,0,0,0.1)" rx="4"/><text x="6" y="137.5" fill="#111" font-size="12">Tab</text><rect width="54" height="54" x="81" y="121.5" fill="#FEFEFE" stroke="rgba(0,0,0,0.6)" rx="2"/><rect width="42" height="42" x="85" y="124.5" fill="#FEFEFE" stroke="rgba(0,0,0,0.1)" rx="4"/><text x="87" y="137.5" fill="#111" font-size="12">Q</text><rect width="54" height="54" x="135" y="121.5" fill="#FEFEFE" stroke="rgba(0,0,0,0.6)" rx="2"/><rect width="42" height="42" x="139" y="124.5" fill="#FEFEFE" stroke="rgba(0,0,0,0.1)" rx="4"/><text x="141" y="137.5" fill="#111" font-size="12">W</text><rect width="54" height="54" x="189" y="121.5" fill="#FEFEFE" stroke="rgba(0,0,0,0.6)" rx="2"/><rect width="42" height="42" x="193" y="124.5" fill="#FEFEFE" stroke="rgba(0,0,0,0.1)" rx="4"/><text x="195" y="137.5" fill="#111" font-size="12">E</text><rect width="54" height="54" x="243" y="121.5" fill="#FEFEFE" stroke="rgba(0,0,0,0.6)" rx="2"/><rect width="42" height="42" x="247" y="124.5" fill="#FEFEFE" stroke="rgba(0,0,0,0.1)" rx="4"/><text x="249" y="137.5" fill="#111" font-size="12">R</text><rect width="54" height="54" x="297" y="121.5" fill="#FEFEFE" stroke="rgba(0,0,0,0.6)" rx="2"/><rect width="42" height="42" x="301" y="124.5" fill="#FEFEFE" stroke="rgba(0,0,0,0.1)" rx="4"/><text x="303" y="137.5" fill="#111" font-size="12">T</text><rect width="54" height="54" x="351" y="121.5" fill="#FEFEFE" stroke="rgba(0,0,0,0.6)" rx="2"/><rect width="42" height="42" x="355" y="124.5" fill="#FEFEFE" stroke="rgba(0,0,0,0.1)" rx="4"/><text x="357" y="137.5" fill="#111" font-size="12">Y</text><rect width="54" height="54" x="405" y="121.5" fill="#FEFEFE" stroke="rgba(0,0,0,0.6)" rx="2"/><rect width="42" height="42" x="409" y="124.5" fill="#FEFEFE" stroke="rgba(0,0,0,0.1)" rx="4"/><text x="411" y="137.5" fill="#111" font-size="12">U</text><rect width="54" height="54" x="459" y="121.5" fill="#FEFEFE" stroke="rgba(0,0,0,0.6)" rx="2"/><rect width="42" height="42" x="463" y="124.5" fill="#FEFEFE" stroke="rgba(0,0,0,0.1)" rx="4"/><text x="465" y="137.5" fill="#111" font-size="12">I</text><rect width="54" height="54" x="513" y="121.5" fill="#FEFEFE" stroke="rgba(0,0,0,0.6)" rx="2"/><rect width="42" height="42" x="517" y="124.5" fill="#FEFEFE" stroke="rgba(0,0,0,0.1)" rx="4"/><text x="519" y="137.5" fill="#111" font-size="12">O</text><rect width="54" height="54" x="567" y="121.5" fill="#FEFEFE" stroke="rgba(0,0,0,0.6)" rx="2"/><rect width="42" height="42" x="571" y="124.5" fill="#FEFEFE" stroke="rgba(0,0,0,0.1)" rx="4"/><text x="573" y="137.5" fill="#111" font-size="12">P</text><rect width="54" height="54" x="621" y="121.5" fill="#FEFEFE" stroke="rgba(0,0,0,0.6)" rx="2"/><rect width="42" height="42" x="625" y="124.5" fill="#FEFEFE" stroke="rgba(0,0,0,0.1)" rx="4"/><text x="627" y="137.5" fill="#111" font-size="12">{</text><text x="627" y="159.5" fill="#111" font-size="12">[</text><rect width="54" height="54" x="675" y="121.5" fill="#FEFEFE" stroke="rgba(0,0,0,0.6)" rx="2"/><rect width="42" height="42" x="679" y="124.5" fill="#FEFEFE" stroke="rgba(0,0,0,0.1)" rx="4"/><text x="681" y="137.5" fill="#111" font-size="12">}</text><text x="681" y="159.5" fill="#111" font-size="12">]</text><rect width="81" height="54" x="729" y="121.5" fill="#FEFEFE" stroke="rgba(0,0,0,0.6)" rx="2"/><rect width="71.85" height="42" x="733" y="124.5" fill="#FEFEFE" stroke="rgba(0,0,0,0.1)" rx="4"/><text x="735" y="137.5" fill="#111" font-size="12">|</text><text x="735" y="159.5" fill="#111" font-size="12">\</text><rect width="54" height="54" x="837" y="121.5" fill="#FEFEFE" stroke="rgba(0,0,0,0.6)" rx="2"/><rect width="42" height="42" x="841" y="124.5" fill="#FEFEFE" stroke="rgba(0,0,0,0.1)" rx="4"/><text x="843" y="137.5" fill="#111" font-size="12">7</text><text x="843" y="159.5" fill="#111" font-size="12">Home</text><rect width="54" height="54" x="891" y="121.5" fill="#FEFEFE" stroke="rgba(0,0,0,0.6)" rx="2"/><rect width="42" height="42" x="895" y="124.5" fill="#FEFEFE" stroke="rgba(0,0,0,0.1)" rx="4"/><text x="897" y="137.5" fill="#111" font-size="12">8</text><text x="897" y="159.5" fill="#111" font-size="12">↑</text><rect width="54" height="54" x="945" y="121.5" fill="#FEFEFE" stroke="rgba(0,0,0,0.6)" rx="2"/><rect width="42" height="42" x="949" y="124.5" fill="#FEFEFE" stroke="rgba(0,0,0,0.1)" rx="4"/><text x="951" y="137.5" fill="#111" font-size="12">9</text><text x="951" y="159.5" fill="#111" font-size="12">PgUp</text><rect width="54" height="108" x="999" y="121.5" fill="#FEFEFE" stroke="rgba(0,0,0,0.6)" rx="2"/><rect width="42" height="95.8" x="1003" y="124.5" fill="#FEFEFE" stroke="rgba(0,0,0,0.1)" rx="4"/><text x="1005" y="137.5" fill="#111" font-size="12">+</text><rect width="94.5" height="54" y="175.5" fill="#FEFEFE" stroke="rgba(0,0,0,0.6)" rx="2"/><rect width="83.825" height="42" x="4" y="178.5" fill="#FEFEFE" stroke="rgba(0,0,0,0.1)" rx="4"/><text x="6" y="191.5" fill="#111" font-size="12">Caps Lock</text><rect width="54" height="54" x="94.5" y="175.5" fill="#FEFEFE" stroke="rgba(0,0,0,0.6)" rx="2"/><rect width="42" height="42" x="98.5" y="178.5" fill="#FEFEFE" stroke="rgba(0,0,0,0.1)" rx="4"/><text x="100.5" y="191.5" fill="#111" font-size="12">A</text><rect width="54" height="54" x="148.5" y="175.5" fill="#FEFEFE" stroke="rgba(0,0,0,0.6)" rx="2"/><rect width="42" height="42" x="152.5" y="178.5" fill="#FEFEFE" stroke="rgba(0,0,0,0.1)" rx="4"/><text x="154.5" y="191.5" fill="#111" font-size="12">S</text><rect width="54" height="54" x="202.5" y="175.5" fill="#FEFEFE" stroke="rgba(0,0,0,0.6)" rx="2"/><rect width="42" height="42" x="206.5" y="178.5" fill="#FEFEFE" stroke="rgba(0,0,0,0.1)" rx="4"/><text x="208.5" y="191.5" fill="#111" font-size="12">D</text><rect width="54" height="54" x="256.5" y="175.5" fill="#FEFEFE" stroke="rgba(0,0,0,0.6)" rx="2"/><rect width="42" height="42" x="260.5" y="178.5" fill="#FEFEFE" stroke="rgba(0,0,0,0.1)" rx="4"/><text x="262.5" y="191.5" fill="#111" font-size="12">F</text><rect width="54" height="54" x="310.5" y="175.5" fill="#FEFEFE" stroke="rgba(0,0,0,0.6)" rx="2"/><rect width="42" height="42" x="314.5" y="178.5" fill="#FEFEFE" stroke="rgba(0,0,0,0.1)" rx="4"/><text x="316.5" y="191.5" fill="#111" font-size="12">G</text><rect width="54" height="54" x="364.5" y="175.5" fill="#FEFEFE" stroke="rgba(0,0,0,0.6)" rx="2"/><rect width="42" height="42" x="368.5" y="178.5" fill="#FEFEFE" stroke="rgba(0,0,0,0.1)" rx="4"/><text x="370.5" y="191.5" fill="#111" font-size="12">H</text><rect width="54" height="54" x="418.5" y="175.5" fill="#FEFEFE" stroke="rgba(0,0,0,0.6)" rx="2"/><rect width="42" height="42" x="422.5" y="178.5" fill="#FEFEFE" stroke="rgba(0,0,0,0.1)" rx="4"/><text x="424.5" y="191.5" fill="#111" font-size="12">J</text><rect width="54" height="54" x="472.5" y="175.5" fill="#FEFEFE" stroke="rgba(0,0,0,0.6)" rx="2"/><rect width="42" height="42" x="476.5" y="178.5" fill="#FEFEFE" stroke="rgba(0,0,0,0.1)" rx="4"/><text x="478.5" y="191.5" fill="#111" font-size="12">K</text><rect width="54" height="54" x="526.5" y="175.5" fill="#FEFEFE" stroke="rgba(0,0,0,0.6)" rx="2"/><rect width="42" height="42" x="530.5" y="178.5" fill="#FEFEFE" stroke="rgba(0,0,0,0.1)" rx="4"/><text x="532.5" y="191.5" fill="#111" font-size="12">L</text><rect width="54" height="54" x="580.5" y="175.5" fill="#FEFEFE" stroke="rgba(0,0,0,0.6)" rx="2"/><rect width="42" height="42" x="584.5" y="178.5" fill="#FEFEFE" stroke="rgba(0,0,0,0.1)" rx="4"/><text x="586.5" y="191.5" fill="#111" font-size="12">:</text><text x="586.5" y="213.5" fill="#111" font-size="12">;</text><rect width="54" height="54" x="634.5" y="175.5" fill="#FEFEFE" stroke="rgba(0,0,0,0.6)" rx="2"/><rect width="42" height="42" x="638.5" y="178.5" fill="#FEFEFE" stroke="rgba(0,0,0,0.1)" rx="4"/><text x="640.5" y="191.5" fill="#111" font-size="12">&quot;</text><text x="640.5" y="213.5" fill="#111" font-size="12">&apos;</text><rect width="121.5" height="54" x="688.5" y="175.5" fill="#FEFEFE" stroke="rgba(0,0,0,0.6)" rx="2"/><rect width="107.775" height="42" x="692.5" y="178.5" fill="#FEFEFE" stroke="rgba(0,0,0,0.1)" rx="4"/><text x="694.5" y="191.5" fill="#111" font-size="12">Enter</text><rect width="54" height="54" x="837" y="175.5" fill="#FEFEFE" stroke="rgba(0,0,0,0.6)" rx="2"/><rect width="42" height="42" x="841" y="178.5" fill="#FEFEFE" stroke="rgba(0,0,0,0.1)" rx="4"/><text x="843" y="191.5" fill="#111" font-size="12">4</text><text x="843" y="213.5" fill="#111" font-size="12"> ←</text><rect width="54" height="54" x="891" y="175.5" fill="#FEFEFE" stroke="rgba(0,0,0,0.6)" rx="2"/><rect width="42" height="42" x="895" y="178.5" fill="#FEFEFE" stroke="rgba(0,0,0,0.1)" rx="4"/><text x="897" y="191.5" fill="#111" font-size="12">5</text><rect width="54" height="54" x="945" y="175.5" fill="#FEFEFE" stroke="rgba(0,0,0,0.6)" rx="2"/><rect width="42" height="42" x="949" y="178.5" fill="#FEFEFE" stroke="rgba(0,0,0,0.1)" rx="4"/><text x="951" y="191.5" fill="#111" font-size="12">6</text><text x="951" y="213.5" fill="#111" font-size="12">→</text><rect width="121.5" height="54" y="229.5" fill="#FEFEFE" stroke="rgba(0,0,0,0.6)" rx="2"/><rect width="107.775" height="42" x="4" y="232.5" fill="#FEFEFE" stroke="rgba(0,0,0,0.1)" rx="4"/><text x="6" y="245.5" fill="#111" font-size="12">Shift</text><rect width="54" height="54" x="121.5" y="229.5" fill="#FEFEFE" stroke="rgba(0,0,0,0.6)" rx="2"/><rect width="42" height="42" x="125.5" y="232.5" fill="#FEFEFE" stroke="rgba(0,0,0,0.1)" rx="4"/><text x="127.5" y="245.5" fill="#111" font-size="12">Z</text><rect width="54" height="54" x="175.5" y="229.5" fill="#FEFEFE" stroke="rgba(0,0,0,0.6)" rx="2"/><rect width="42" height="42" x="179.5" y="232.5" fill="#FEFEFE" stroke="rgba(0,0,0,0.1)" rx="4"/><text x="181.5" y="245.5" fill="#111" font-size="12">X</text><rect width="54" height="54" x="229.5" y="229.5" fill="#FEFEFE" stroke="rgba(0,0,0,0.6)" rx="2"/><rect width="42" height="42" x="233.5" y="232.5" fill="#FEFEFE" stroke="rgba(0,0,0,0.1)" rx="4"/><text x="235.5" y="245.5" fill="#111" font-size="12">C</text><rect width="54" height="54" x="283.5" y="229.5" fill="#FEFEFE" stroke="rgba(0,0,0,0.6)" rx="2"/><rect width="42" height="42" x="287.5" y="232.5" fill="#FEFEFE" stroke="rgba(0,0,0,0.1)" rx="4"/><text x="289.5" y="245.5" fill="#111" font-size="12">V</text><rect width="54" height="54" x="337.5" y="229.5" fill="#FEFEFE" stroke="rgba(0,0,0,0.6)" rx="2"/><rect width="42" height="42" x="341.5" y="232.5" fill="#FEFEFE" stroke="rgba(0,0,0,0.1)" rx="4"/><text x="343.5" y="245.5" fill="#111" font-size="12">B</text><rect width="54" height="54" x="391.5" y="229.5" fill="#FEFEFE" stroke="rgba(0,0,0,0.6)" rx="2"/><rect width="42" height="42" x="395.5" y="232.5" fill="#FEFEFE" stroke="rgba(0,0,0,0.1)" rx="4"/><text x="397.5" y="245.5" fill="#111" font-size="12">N</text><rect width="54" height="54" x="445.5" y="229.5" fill="#FEFEFE" stroke="rgba(0,0,0,0.6)" rx="2"/><rect width="42" height="42" x="449.5" y="232.5" fill="#FEFEFE" stroke="rgba(0,0,0,0.1)" rx="4"/><text x="451.5" y="245.5" fill="#111" font-size="12">M</text><rect width="54" height="54" x="499.5" y="229.5" fill="#FEFEFE" stroke="rgba(0,0,0,0.6)" rx="2"/><rect width="42" height="42" x="503.5" y="232.5" fill="#FEFEFE" stroke="rgba(0,0,0,0.1)" rx="4"/><text x="505.5" y="245.5" fill="#111" font-size="12">&lt;</text><text x="505.5" y="267.5" fill="#111" font-size="12">,</text><rect width="54" height="54" x="553.5" y="229.5" fill="#FEFEFE" stroke="rgba(0,0,0,0.6)" rx="2"/><rect width="42" height="42" x="557.5" y="232.5" fill="#FEFEFE" stroke="rgba(0,0,0,0.1)" rx="4"/><text x="559.5" y="245.5" fill="#111" font-size="12">&gt;</text><text x="559.5" y="267.5" fill="#111" font-size="12">.</text><rect width="54" height="54" x="607.5" y="229.5" fill="#FEFEFE" stroke="rgba(0,0,0,0.6)" rx="2"/><rect width="42" height="42" x="611.5" y="232.5" fill="#FEFEFE" stroke="rgba(0,0,0,0.1)" rx="4"/><text x="613.5" y="245.5" fill="#111" font-size="12">?</text><text x="613.5" y="267.5" fill="#111" font-size="12">/</text><rect width="94.5" height="54" x="661.5" y="229.5" fill="#FEFEFE" stroke="rgba(0,0,0,0.6)" rx="2"/><rect width="83.825" height="42" x="665.5" y="232.5" fill="#FEFEFE" stroke="rgba(0,0,0,0.1)" rx="4"/><text x="667.5" y="245.5" fill="#111" font-size="12">Shift</text><rect width="54" height="54" x="769.5" y="243" fill="#FEFEFE" stroke="rgba(0,0,0,0.6)" rx="2"/><rect width="42" height="42" x="773.5" y="246" fill="#FEFEFE" stroke="rgba(0,0,0,0.1)" rx="4"/><text x="775.5" y="259" fill="#111" font-size="12">↑</text><rect width="54" height="54" x="837" y="229.5" fill="#FEFEFE" stroke="rgba(0,0,0,0.6)" rx="2"/><rect width="42" height="42" x="841" y="232.5" fill="#FEFEFE" stroke="rgba(0,0,0,0.1)" rx="4"/><text x="843" y="245.5" fill="#111" font-size="12">1</text><text x="843" y="267.5" fill="#111" font-size="12">End</text><rect width="54" height="54" x="891" y="229.5" fill="#FEFEFE" stroke="rgba(0,0,0,0.6)" rx="2"/><rect width="42" height="42" x="895" y="232.5" fill="#FEFEFE" stroke="rgba(0,0,0,0.1)" rx="4"/><text x="897" y="245.5" fill="#111" font-size="12">2</text><text x="897" y="267.5" fill="#111" font-size="12">↓</text><rect width="54" height="54" x="945" y="229.5" fill="#FEFEFE" stroke="rgba(0,0,0,0.6)" rx="2"/><rect width="42" height="42" x="949" y="232.5" fill="#FEFEFE" stroke="rgba(0,0,0,0.1)" rx="4"/><text x="951" y="245.5" fill="#111" font-size="12">3</text><text x="951" y="267.5" fill="#111" font-size="12">PgDn</text><rect width="54" height="108" x="999" y="229.5" fill="#FEFEFE" stroke="rgba(0,0,0,0.6)" rx="2"/><rect width="42" height="95.8" x="1003" y="232.5" fill="#FEFEFE" stroke="rgba(0,0,0,0.1)" rx="4"/><text x="1005" y="245.5" fill="#111" font-size="12">Enter</text><rect width="81" height="54" y="283.5" fill="#FEFEFE" stroke="rgba(0,0,0,0.6)" rx="2"/><rect width="71.85" height="42" x="4" y="286.5" fill="#FEFEFE" stroke="rgba(0,0,0,0.1)" rx="4"/><text x="6" y="299.5" fill="#111" font-size="12">Ctrl</text><rect width="81" height="54" x="81" y="283.5" fill="#FEFEFE" stroke="rgba(0,0,0,0.6)" rx="2"/><rect width="71.85" height="42" x="85" y="286.5" fill="#FEFEFE" stroke="rgba(0,0,0,0.1)" rx="4"/><text x="87" y="299.5" fill="#111" font-size="12">Alt</text><rect width="378" height="54" x="162" y="283.5" fill="#FEFEFE" stroke="rgba(0,0,0,0.6)" rx="2"/><rect width="364" height="42" x="166" y="286.5" fill="#FEFEFE" stroke="rgba(0,0,0,0.1)" rx="4"/><rect width="81" height="54" x="540" y="283.5" fill="#FEFEFE" stroke="rgba(0,0,0,0.6)" rx="2"/><rect width="71.85" height="42" x="544" y="286.5" fill="#FEFEFE" stroke="rgba(0,0,0,0.1)" rx="4"/><text x="546" y="299.5" fill="#111" font-size="12">Alt</text><rect width="81" height="54" x="621" y="283.5" fill="#FEFEFE" stroke="rgba(0,0,0,0.6)" rx="2"/><rect width="71.85" height="42" x="625" y="286.5" fill="#FEFEFE" stroke="rgba(0,0,0,0.1)" rx="4"/><text x="627" y="299.5" fill="#111" font-size="12">Ctl</text><rect width="54" height="54" x="715.5" y="297" fill="#FEFEFE" stroke="rgba(0,0,0,0.6)" rx="2"/><rect width="42" height="42" x="719.5" y="300" fill="#FEFEFE" stroke="rgba(0,0,0,0.1)" rx="4"/><text x="721.5" y="313" fill="#111" font-size="12">←</text><rect width="54" height="54" x="769.5" y="297" fill="#FEFEFE" stroke="rgba(0,0,0,0.6)" rx="2"/><rect width="42" height="42" x="773.5" y="300" fill="#FEFEFE" stroke="rgba(0,0,0,0.1)" rx="4"/><text x="775.5" y="313" fill="#111" font-size="12">↓</text><rect width="54" height="54" x="823.5" y="297" fill="#FEFEFE" stroke="rgba(0,0,0,0.6)" rx="2"/><rect width="42" height="42" x="827.5" y="300" fill="#FEFEFE" stroke="rgba(0,0,0,0.1)" rx="4"/><text x="829.5" y="313" fill="#111" font-size="12">→</text><rect width="54" height="54" x="891" y="283.5" fill="#FEFEFE" stroke="rgba(0,0,0,0.6)" rx="2"/><rect width="42" height="42" x="895" y="286.5" fill="#FEFEFE" stroke="rgba(0,0,0,0.1)" rx="4"/><text x="897" y="299.5" fill="#111" font-size="12">0</text><text x="897" y="321.5" fill="#111" font-size="12">Ins</text><rect width="54" height="54" x="945" y="283.5" fill="#FEFEFE" stroke="rgba(0,0,0,0.6)" rx="2"/><rect width="42" height="42" x="949" y="286.5" fill="#FEFEFE" stroke="rgba(0,0,0,0.1)" rx="4"/><text x="951" y="299.5" fill="#111" font-size="12">.</text><text x="951" y="321.5" fill="#111" font-size="12">Del</text></svg>