<?xml version="1.0" encoding="UTF-8"?>
<svg viewBox="0 0 564 275" xmlns="http://www.w3.org/2000/svg">
<defs>
<style>@import url('https://fonts.googleapis.com/css?family=Nunito Sans&amp;display=swap');</style>
</defs>
<defs>
<filter id="a" height="130%">
<feGaussianBlur in="SourceAlpha" stdDeviation="3"/>
<feOffset dx="2" dy="2" result="offsetblur"/>
<feComponentTransfer>
<feFuncA slope="0.5" type="linear"/>
</feComponentTransfer>
<feMerge>
<feMergeNode/>
<feMergeNode in="SourceGraphic"/>
</feMerge>
</filter>
</defs>
<g transform="translate(0) scale(1)" fill="transparent" style="transition:transform 0.15s ease;will-change:transform">
<text x="24" y="24" fill="#333333" font-family="'Nunito Sans', sans-serif" font-size="16" font-weight="bold">TODO</text>
<line x1="180" x2="180" y2="275" stroke="#333" stroke-width="3"/>
<rect x="16" y="40" width="140" height="64" rx="1" ry="1" fill="#3E9BCD" filter="url(#a)"/>
<rect x="16" y="121" width="140" height="64" rx="1" ry="1" fill="#3E9BCD" filter="url(#a)"/>
<rect x="16" y="202" width="140" height="64" rx="1" ry="1" fill="#3E9BCD" filter="url(#a)"/>
<text x="212" y="24" fill="#333333" font-family="'Nunito Sans', sans-serif" font-size="16" font-weight="bold">DOING</text>
<line x1="368" x2="368" y2="275" stroke="#333" stroke-width="3"/>
<rect x="204" y="40" width="140" height="64" rx="1" ry="1" fill="#3E9BCD" filter="url(#a)"/>
<rect x="204" y="121" width="140" height="64" rx="1" ry="1" fill="#3E9BCD" filter="url(#a)"/>
<rect x="204" y="202" width="140" height="64" rx="1" ry="1" fill="#3E9BCD" filter="url(#a)"/>
<text x="400" y="24" fill="#333333" font-family="'Nunito Sans', sans-serif" font-size="16" font-weight="bold">DONE</text>
<line x1="556" x2="556" y2="275" stroke="#333" stroke-width="3"/>
<rect x="392" y="40" width="140" height="64" rx="1" ry="1" fill="#3E9BCD" filter="url(#a)"/>
<rect x="392" y="121" width="140" height="64" rx="1" ry="1" fill="#3E9BCD" filter="url(#a)"/>
<rect x="392" y="202" width="140" height="64" rx="1" ry="1" fill="#3E9BCD" filter="url(#a)"/>
</g>
</svg>
