<?xml version="1.0" encoding="UTF-8"?>
<svg viewBox="0 0 700 775" xmlns="http://www.w3.org/2000/svg">
<defs>
<style>@import url('https://fonts.googleapis.com/css?family=Nunito Sans&amp;display=swap');</style>
</defs>
<defs>
<filter id="a" height="130%">
<feGaussianBlur in="SourceAlpha" stdDeviation="3"/>
<feOffset dx="2" dy="2" result="offsetblur"/>
<feComponentTransfer>
<feFuncA slope="0.5" type="linear"/>
</feComponentTransfer>
<feMerge>
<feMergeNode/>
<feMergeNode in="SourceGraphic"/>
</feMerge>
</filter>
</defs>
<g transform="translate(0 30) scale(1.1)" fill="transparent" style="transition:transform 0.15s ease;will-change:transform">
<rect y="105" width="140" height="64" rx="1" ry="1" fill="#3E9BCD" filter="url(#a)"/>
<line x1="70" x2="70" y2="105" stroke="#333"/>
<g stroke="#333">
<line x1="20" x2="20" y1="170" y2="242"/>
<line x1="20" x2="140" y1="242" y2="242"/>
</g>
<rect x="40" y="210" width="140" height="64" rx="1" ry="1" fill="#F4F4F5" filter="url(#a)"/>
<g stroke="#333">
<line x1="20" x2="20" y1="170" y2="347"/>
<line x1="20" x2="140" y1="347" y2="347"/>
</g>
<rect x="40" y="315" width="140" height="64" rx="1" ry="1" fill="#F4F4F5" filter="url(#a)"/>
<g stroke="#333">
<line x1="20" x2="20" y1="170" y2="452"/>
<line x1="20" x2="140" y1="452" y2="452"/>
</g>
<rect x="40" y="420" width="140" height="64" rx="1" ry="1" fill="#F4F4F5" filter="url(#a)"/>
<g stroke="#333">
<line x1="20" x2="20" y1="170" y2="557"/>
<line x1="20" x2="140" y1="557" y2="557"/>
</g>
<rect x="40" y="525" width="140" height="64" rx="1" ry="1" fill="#F4F4F5" filter="url(#a)"/>
<rect x="220" y="105" width="140" height="64" rx="1" ry="1" fill="#3E9BCD" filter="url(#a)"/>
<g stroke="#333">
<line x1="70" x2="290" y1="85" y2="85"/>
<line x1="290" x2="290" y1="85" y2="105"/>
</g>
<g stroke="#333">
<line x1="240" x2="240" y1="170" y2="242"/>
<line x1="240" x2="360" y1="242" y2="242"/>
</g>
<rect x="260" y="210" width="140" height="64" rx="1" ry="1" fill="#F4F4F5" filter="url(#a)"/>
<g stroke="#333">
<line x1="240" x2="240" y1="170" y2="347"/>
<line x1="240" x2="360" y1="347" y2="347"/>
</g>
<rect x="260" y="315" width="140" height="64" rx="1" ry="1" fill="#F4F4F5" filter="url(#a)"/>
<g stroke="#333">
<line x1="240" x2="240" y1="170" y2="452"/>
<line x1="240" x2="360" y1="452" y2="452"/>
</g>
<rect x="260" y="420" width="140" height="64" rx="1" ry="1" fill="#F4F4F5" filter="url(#a)"/>
<g stroke="#333">
<line x1="240" x2="240" y1="170" y2="557"/>
<line x1="240" x2="360" y1="557" y2="557"/>
</g>
<rect x="260" y="525" width="140" height="64" rx="1" ry="1" fill="#F4F4F5" filter="url(#a)"/>
<rect x="440" y="105" width="140" height="64" rx="1" ry="1" fill="#3E9BCD" filter="url(#a)"/>
<g stroke="#333">
<line x1="70" x2="510" y1="85" y2="85"/>
<line x1="510" x2="510" y1="85" y2="105"/>
</g>
<g stroke="#333">
<line x1="460" x2="460" y1="170" y2="242"/>
<line x1="460" x2="580" y1="242" y2="242"/>
</g>
<rect x="480" y="210" width="140" height="64" rx="1" ry="1" fill="#F4F4F5" filter="url(#a)"/>
<g stroke="#333">
<line x1="460" x2="460" y1="170" y2="347"/>
<line x1="460" x2="580" y1="347" y2="347"/>
</g>
<rect x="480" y="315" width="140" height="64" rx="1" ry="1" fill="#F4F4F5" filter="url(#a)"/>
<g stroke="#333">
<line x1="460" x2="460" y1="170" y2="452"/>
<line x1="460" x2="580" y1="452" y2="452"/>
</g>
<rect x="480" y="420" width="140" height="64" rx="1" ry="1" fill="#F4F4F5" filter="url(#a)"/>
<g stroke="#333">
<line x1="460" x2="460" y1="170" y2="557"/>
<line x1="460" x2="580" y1="557" y2="557"/>
</g>
<rect x="480" y="525" width="140" height="64" rx="1" ry="1" fill="#F4F4F5" filter="url(#a)"/>
<rect width="140" height="64" rx="1" ry="1" fill="#266B9A" filter="url(#a)"/>
</g>
</svg>
