<svg
    xmlns="http://www.w3.org/2000/svg" viewBox="0 0 700 775" width="700" height="775" style="transparent">
    <defs>
        <style>@import url('https://fonts.googleapis.com/css?family=Nunito Sans&amp;display=swap');</style>
    </defs>
    <defs>
        <filter id="shadow" height="130%">
            <feGaussianBlur in="SourceAlpha" stdDeviation="3"/>
            <feOffset dx="2" dy="2" result="offsetblur"/>
            <feComponentTransfer>
                <feFuncA type="linear" slope="0.5"/>
            </feComponentTransfer>
            <feMerge>
                <feMergeNode/>
                <feMergeNode in="SourceGraphic"/>
            </feMerge>
        </filter>
    </defs>
    <g transform="translate(0,30), scale(1.1,1.1)" fill="transparent" style="will-change: transform;transition: transform 0.15s ease">
        <g>
            <g>
                <g>
                    <rect width="140" height="64" x="0" y="105" fill="#3E9BCD" rx="1" ry="1" style="filter:url(#shadow)"/>
                    <g/></g>
                <line x1="70" y1="0" x2="70" y2="105" stroke="#333333" stroke-width="1"/>
                <g>
                    <g>
                        <line x1="20" y1="170" x2="20" y2="242" stroke="#333333" stroke-width="1"/>
                        <line x1="20" y1="242" x2="140" y2="242" stroke="#333333" stroke-width="1"/>
                    </g>
                    <g>
                        <rect width="140" height="64" x="40" y="210" fill="#F4F4F5" rx="1" ry="1" style="filter:url(#shadow)"/>
                        <g/></g>
                    <g/>
                    <g>
                        <line x1="20" y1="170" x2="20" y2="347" stroke="#333333" stroke-width="1"/>
                        <line x1="20" y1="347" x2="140" y2="347" stroke="#333333" stroke-width="1"/>
                    </g>
                    <g>
                        <rect width="140" height="64" x="40" y="315" fill="#F4F4F5" rx="1" ry="1" style="filter:url(#shadow)"/>
                        <g/></g>
                    <g/>
                    <g>
                        <line x1="20" y1="170" x2="20" y2="452" stroke="#333333" stroke-width="1"/>
                        <line x1="20" y1="452" x2="140" y2="452" stroke="#333333" stroke-width="1"/>
                    </g>
                    <g>
                        <rect width="140" height="64" x="40" y="420" fill="#F4F4F5" rx="1" ry="1" style="filter:url(#shadow)"/>
                        <g/></g>
                    <g/>
                    <g>
                        <line x1="20" y1="170" x2="20" y2="557" stroke="#333333" stroke-width="1"/>
                        <line x1="20" y1="557" x2="140" y2="557" stroke="#333333" stroke-width="1"/>
                    </g>
                    <g>
                        <rect width="140" height="64" x="40" y="525" fill="#F4F4F5" rx="1" ry="1" style="filter:url(#shadow)"/>
                        <g/></g>
                    <g/></g>
                <g>
                    <rect width="140" height="64" x="220" y="105" fill="#3E9BCD" rx="1" ry="1" style="filter:url(#shadow)"/>
                    <g/></g>
                <g>
                    <line x1="70" y1="85" x2="290" y2="85" stroke="#333333" stroke-width="1"/>
                    <line x1="290" y1="85" x2="290" y2="105" stroke="#333333" stroke-width="1"/>
                </g>
                <g>
                    <g>
                        <line x1="240" y1="170" x2="240" y2="242" stroke="#333333" stroke-width="1"/>
                        <line x1="240" y1="242" x2="360" y2="242" stroke="#333333" stroke-width="1"/>
                    </g>
                    <g>
                        <rect width="140" height="64" x="260" y="210" fill="#F4F4F5" rx="1" ry="1" style="filter:url(#shadow)"/>
                        <g/></g>
                    <g/>
                    <g>
                        <line x1="240" y1="170" x2="240" y2="347" stroke="#333333" stroke-width="1"/>
                        <line x1="240" y1="347" x2="360" y2="347" stroke="#333333" stroke-width="1"/>
                    </g>
                    <g>
                        <rect width="140" height="64" x="260" y="315" fill="#F4F4F5" rx="1" ry="1" style="filter:url(#shadow)"/>
                        <g/></g>
                    <g/>
                    <g>
                        <line x1="240" y1="170" x2="240" y2="452" stroke="#333333" stroke-width="1"/>
                        <line x1="240" y1="452" x2="360" y2="452" stroke="#333333" stroke-width="1"/>
                    </g>
                    <g>
                        <rect width="140" height="64" x="260" y="420" fill="#F4F4F5" rx="1" ry="1" style="filter:url(#shadow)"/>
                        <g/></g>
                    <g/>
                    <g>
                        <line x1="240" y1="170" x2="240" y2="557" stroke="#333333" stroke-width="1"/>
                        <line x1="240" y1="557" x2="360" y2="557" stroke="#333333" stroke-width="1"/>
                    </g>
                    <g>
                        <rect width="140" height="64" x="260" y="525" fill="#F4F4F5" rx="1" ry="1" style="filter:url(#shadow)"/>
                        <g/></g>
                    <g/></g>
                <g>
                    <rect width="140" height="64" x="440" y="105" fill="#3E9BCD" rx="1" ry="1" style="filter:url(#shadow)"/>
                    <g/></g>
                <g>
                    <line x1="70" y1="85" x2="510" y2="85" stroke="#333333" stroke-width="1"/>
                    <line x1="510" y1="85" x2="510" y2="105" stroke="#333333" stroke-width="1"/>
                </g>
                <g>
                    <g>
                        <line x1="460" y1="170" x2="460" y2="242" stroke="#333333" stroke-width="1"/>
                        <line x1="460" y1="242" x2="580" y2="242" stroke="#333333" stroke-width="1"/>
                    </g>
                    <g>
                        <rect width="140" height="64" x="480" y="210" fill="#F4F4F5" rx="1" ry="1" style="filter:url(#shadow)"/>
                        <g/></g>
                    <g/>
                    <g>
                        <line x1="460" y1="170" x2="460" y2="347" stroke="#333333" stroke-width="1"/>
                        <line x1="460" y1="347" x2="580" y2="347" stroke="#333333" stroke-width="1"/>
                    </g>
                    <g>
                        <rect width="140" height="64" x="480" y="315" fill="#F4F4F5" rx="1" ry="1" style="filter:url(#shadow)"/>
                        <g/></g>
                    <g/>
                    <g>
                        <line x1="460" y1="170" x2="460" y2="452" stroke="#333333" stroke-width="1"/>
                        <line x1="460" y1="452" x2="580" y2="452" stroke="#333333" stroke-width="1"/>
                    </g>
                    <g>
                        <rect width="140" height="64" x="480" y="420" fill="#F4F4F5" rx="1" ry="1" style="filter:url(#shadow)"/>
                        <g/></g>
                    <g/>
                    <g>
                        <line x1="460" y1="170" x2="460" y2="557" stroke="#333333" stroke-width="1"/>
                        <line x1="460" y1="557" x2="580" y2="557" stroke="#333333" stroke-width="1"/>
                    </g>
                    <g>
                        <rect width="140" height="64" x="480" y="525" fill="#F4F4F5" rx="1" ry="1" style="filter:url(#shadow)"/>
                        <g/></g>
                    <g/></g>
            </g>
            <g>
                <rect width="140" height="64" x="0" y="0" fill="#266B9A" rx="1" ry="1" style="filter:url(#shadow)"/>
                <g/></g>
        </g>
    </g>
</svg>
