<?xml version="1.0" encoding="UTF-8"?>
<svg viewBox="0 0 980 211" xmlns="http://www.w3.org/2000/svg">
<defs>
<style>@import url('https://fonts.googleapis.com/css?family=Nunito Sans&amp;display=swap');</style>
</defs>
<g transform="translate(0) scale(1)" fill="transparent" style="transition:transform 0.15s ease;will-change:transform">
<rect width="140" height="64" fill="transparent" stroke="#333" stroke-width="3"/>
<text class=".select-none" x="6" y="24" width="140" height="65" color="#111111" fill="#111111" font-size="14">Column1</text>
<rect x="140" width="140" height="64" fill="transparent" stroke="#333" stroke-width="3"/>
<text class=".select-none" x="146" y="24" width="140" height="65" color="#111111" fill="#111111" font-size="14">Column2</text>
<rect x="280" width="140" height="64" fill="transparent" stroke="#333" stroke-width="3"/>
<text class=".select-none" x="286" y="24" width="140" height="65" color="#111111" fill="#111111" font-size="14">Column3</text>
<rect x="420" width="140" height="64" fill="transparent" stroke="#333" stroke-width="3"/>
<text class=".select-none" x="426" y="24" width="140" height="65" color="#111111" fill="#111111" font-size="14">Column4</text>
<rect x="560" width="140" height="64" fill="transparent" stroke="#333" stroke-width="3"/>
<text class=".select-none" x="566" y="24" width="140" height="65" color="#111111" fill="#111111" font-size="14">Column5</text>
<rect x="700" width="140" height="64" fill="transparent" stroke="#333" stroke-width="3"/>
<text class=".select-none" x="706" y="24" width="140" height="65" color="#111111" fill="#111111" font-size="14">Column6</text>
<rect x="840" width="140" height="64" fill="transparent" stroke="#333" stroke-width="3"/>
<text class=".select-none" x="846" y="24" width="140" height="65" color="#111111" fill="#111111" font-size="14">Column7</text>
<rect y="65" width="140" height="64" fill="transparent" stroke="#333" stroke-width="3"/>
<text class=".select-none" x="6" y="89" width="140" height="65" color="#111111" fill="#111111" font-size="14">Row1</text>
<rect x="140" y="65" width="140" height="64" fill="transparent" stroke="#333" stroke-width="3"/>
<text class=".select-none" x="146" y="89" width="140" height="65" color="#111111" fill="#111111" font-size="14">Column1</text>
<rect x="280" y="65" width="140" height="64" fill="transparent" stroke="#333" stroke-width="3"/>
<text class=".select-none" x="286" y="89" width="140" height="65" color="#111111" fill="#111111" font-size="14">Column2</text>
<rect x="420" y="65" width="140" height="64" fill="transparent" stroke="#333" stroke-width="3"/>
<text class=".select-none" x="426" y="89" width="140" height="65" color="#111111" fill="#111111" font-size="14">Column3</text>
<rect x="560" y="65" width="140" height="64" fill="transparent" stroke="#333" stroke-width="3"/>
<text class=".select-none" x="566" y="89" width="140" height="65" color="#111111" fill="#111111" font-size="14">Column4</text>
<rect x="700" y="65" width="140" height="64" fill="transparent" stroke="#333" stroke-width="3"/>
<text class=".select-none" x="706" y="89" width="140" height="65" color="#111111" fill="#111111" font-size="14">Column5</text>
<rect x="840" y="65" width="140" height="64" fill="transparent" stroke="#333" stroke-width="3"/>
<text class=".select-none" x="846" y="89" width="140" height="65" color="#111111" fill="#111111" font-size="14">Column6</text>
<rect y="130" width="140" height="64" fill="transparent" stroke="#333" stroke-width="3"/>
<text class=".select-none" x="6" y="154" width="140" height="65" color="#111111" fill="#111111" font-size="14">Row2</text>
<rect x="140" y="130" width="140" height="64" fill="transparent" stroke="#333" stroke-width="3"/>
<text class=".select-none" x="146" y="154" width="140" height="65" color="#111111" fill="#111111" font-size="14">Column1</text>
<rect x="280" y="130" width="140" height="64" fill="transparent" stroke="#333" stroke-width="3"/>
<text class=".select-none" x="286" y="154" width="140" height="65" color="#111111" fill="#111111" font-size="14">Column2</text>
<rect x="420" y="130" width="140" height="64" fill="transparent" stroke="#333" stroke-width="3"/>
<text class=".select-none" x="426" y="154" width="140" height="65" color="#111111" fill="#111111" font-size="14">Column3</text>
<rect x="560" y="130" width="140" height="64" fill="transparent" stroke="#333" stroke-width="3"/>
<text class=".select-none" x="566" y="154" width="140" height="65" color="#111111" fill="#111111" font-size="14">Column4</text>
<rect x="700" y="130" width="140" height="64" fill="transparent" stroke="#333" stroke-width="3"/>
<text class=".select-none" x="706" y="154" width="140" height="65" color="#111111" fill="#111111" font-size="14">Column5</text>
<rect x="840" y="130" width="140" height="64" fill="transparent" stroke="#333" stroke-width="3"/>
<text class=".select-none" x="846" y="154" width="140" height="65" color="#111111" fill="#111111" font-size="14">Column6</text>
</g>
</svg>
